<?xml version="1.0" encoding="UTF-8" standalone="no"?>
<!DOCTYPE svg PUBLIC "-//W3C//DTD SVG 1.1//EN" "http://www.w3.org/Graphics/SVG/1.1/DTD/svg11.dtd">
<svg width="100%" height="100%" viewBox="0 0 512 512" version="1.1" xmlns="http://www.w3.org/2000/svg" xmlns:xlink="http://www.w3.org/1999/xlink" xml:space="preserve" xmlns:serif="http://www.serif.com/" style="fill-rule:evenodd;clip-rule:evenodd;stroke-linejoin:round;stroke-miterlimit:2;">
    <g transform="matrix(1,0,0,1,-603.234,0)">
        <g id="ArtBoard1" transform="matrix(1,0,0,1,603.234,0)">
            <rect x="0" y="0" width="512" height="512" style="fill:none;"/>
            <g transform="matrix(9.95961,0,0,9.81013,-3850.15,-1237.41)">
                <path d="M410.941,136.932C414.882,136.448 412.068,146.332 413.667,148.546C414.407,149.572 419.473,141.564 420.581,141.275C424.99,140.124 419.742,154.948 420.178,156.011C420.825,157.588 429.247,152.45 431.029,154.915C432.701,157.226 420.093,171.873 418.92,172.488C416.722,173.64 413.224,169.652 407.504,169.646C402.073,169.641 398.171,174.128 396.128,172.936C394.826,172.175 387.004,157.99 390.711,154.05C393.384,151.208 396.003,160.459 396.355,159.029C396.541,158.27 396.574,158.133 396.637,156.762C396.838,152.351 395.628,141.745 398.147,139.791C402.352,136.527 403.934,150.22 405.104,149.242C406.066,148.439 408.083,137.284 410.941,136.932ZM431.508,153.954C431.419,154.062 431.353,154.228 431.374,154.442C431.393,154.63 431.498,154.902 431.638,155.108C431.762,155.289 431.918,155.418 432.043,155.473C432.192,155.538 432.335,155.54 432.464,155.501C432.613,155.455 432.888,155.299 433.194,155.083C433.818,154.642 434.616,153.959 434.707,153.848C434.93,153.574 434.811,153.346 434.762,153.261C434.694,153.143 434.577,153.026 434.36,153.011C434.315,153.007 434.166,153.017 433.972,153.115C433.724,153.239 433.17,153.572 432.898,153.655C432.795,153.686 432.654,153.684 432.516,153.685C432.293,153.688 432.075,153.69 431.93,153.719C431.725,153.76 431.588,153.856 431.508,153.954ZM391.498,152.91C391.598,152.799 391.68,152.612 391.634,152.353C391.608,152.205 391.522,151.987 391.434,151.765C391.382,151.633 391.322,151.501 391.316,151.4C391.3,151.131 391.452,150.568 391.492,150.318C391.528,150.091 391.479,149.937 391.454,149.887C391.351,149.678 391.185,149.606 391.008,149.603C390.919,149.602 390.761,149.613 390.61,149.781C390.528,149.872 390.215,150.464 389.998,151.032C389.84,151.443 389.742,151.844 389.753,152.05C389.76,152.168 389.821,152.345 389.977,152.514C390.144,152.694 390.45,152.908 390.69,153.011C390.87,153.089 391.034,153.107 391.142,153.094C391.298,153.074 391.414,153.004 391.498,152.91L391.498,152.91ZM420.969,140.147C420.949,140.285 420.978,140.461 421.106,140.634C421.218,140.786 421.448,140.965 421.674,141.069C421.874,141.161 422.073,141.192 422.209,141.175C422.37,141.154 422.494,141.083 422.585,140.983C422.689,140.867 422.845,140.592 422.996,140.248C423.305,139.55 423.639,138.554 423.66,138.412C423.71,138.063 423.491,137.928 423.405,137.88C423.286,137.814 423.126,137.774 422.931,137.872C422.892,137.892 422.769,137.978 422.652,138.161C422.504,138.395 422.199,138.965 422.009,139.176C421.937,139.256 421.814,139.326 421.697,139.398C421.507,139.515 421.321,139.628 421.211,139.728C421.056,139.868 420.988,140.021 420.969,140.147ZM397.678,138.558C397.764,138.677 397.905,138.779 398.1,138.824C398.31,138.871 398.623,138.845 398.872,138.753C399.29,138.6 399.482,138.251 399.446,137.981C399.374,137.43 398.234,135.115 398.085,134.907C397.872,134.611 397.61,134.676 397.529,134.698C397.387,134.736 397.218,134.829 397.166,135.085C397.157,135.126 397.15,135.276 397.21,135.488C397.306,135.827 397.576,136.603 397.623,136.954C397.66,137.24 397.558,137.655 397.542,137.94C397.527,138.22 397.591,138.436 397.678,138.558ZM410.8,135.659C410.823,135.813 410.901,135.97 411.043,136.104C411.225,136.275 411.543,136.416 411.83,136.451C412.295,136.508 412.641,136.28 412.733,135.964C412.923,135.31 412.921,132.104 412.875,131.79C412.822,131.422 412.554,131.358 412.482,131.341C412.332,131.307 412.115,131.306 411.949,131.555C411.925,131.59 411.861,131.734 411.825,131.964C411.754,132.411 411.641,133.463 411.515,133.897C411.412,134.252 411.104,134.682 410.948,135.006C410.821,135.268 410.778,135.501 410.8,135.659Z"/>
            </g>
        </g>
    </g>
</svg>
