<?xml version="1.0" encoding="UTF-8" standalone="no"?>
<!DOCTYPE svg PUBLIC "-//W3C//DTD SVG 1.1//EN" "http://www.w3.org/Graphics/SVG/1.1/DTD/svg11.dtd">
<svg width="100%" height="100%" viewBox="0 0 1920 1080" version="1.1" xmlns="http://www.w3.org/2000/svg" xmlns:xlink="http://www.w3.org/1999/xlink" xml:space="preserve" xmlns:serif="http://www.serif.com/" style="fill-rule:evenodd;clip-rule:evenodd;stroke-linecap:round;stroke-linejoin:round;stroke-miterlimit:1.5;">
    <g transform="matrix(1.55011,0,0,1.55011,-705.909,-245.198)">
        <path d="M1174.74,345.828C1174.74,345.828 1118.55,356.956 1119.53,412.588C1120.53,468.836 1180.76,472.095 1180.76,472.095C1180.76,472.095 1177,509.908 1212.36,520.782C1237.53,528.523 1262.15,515.25 1262.15,515.25C1262.15,515.25 1265.73,549.039 1313.18,546.601C1342.81,545.079 1356.21,512.791 1356.21,512.791C1356.21,512.791 1386.67,537.237 1409.08,527.544C1430.65,518.212 1435.51,490.66 1435.51,490.66C1435.51,490.66 1452.78,510.68 1478.54,494.963C1505,478.82 1499.44,449.29 1499.44,449.29C1499.44,449.29 1537.59,442.311 1531.87,394.3C1523.98,328.103 1475.47,344.353 1475.47,344.353C1475.47,344.353 1478.15,302.277 1444.73,290.87C1397.25,274.667 1378.34,301.321 1378.34,301.321C1378.34,301.321 1381.62,264.439 1325.6,268.74C1285.43,271.824 1270.14,305.624 1270.14,305.624C1270.14,305.624 1252.82,280.769 1211.13,294.559C1177.55,305.666 1174.74,345.828 1174.74,345.828Z" style="fill:none;stroke:black;stroke-width:10.04px;"/>
    </g>
    <g transform="matrix(1,0,0,0.823903,4.03421,63.8691)">
        <circle cx="1135.93" cy="682.415" r="49.179" style="fill:rgb(235,235,235);stroke:black;stroke-width:16.99px;"/>
    </g>
    <g transform="matrix(0.465569,0,0,0.383584,539.037,429.88)">
        <circle cx="1135.93" cy="682.415" r="49.179" style="fill:rgb(235,235,235);stroke:black;stroke-width:36.49px;"/>
    </g>
</svg>
